<?xml version="1.0" encoding="UTF-8"?>
<svg xmlns="http://www.w3.org/2000/svg" version="1.1" id="frequency-chart" width="1200" height="600" font-family="'Droid Sans', sans-serif" font-size="20"><rect fill="#F4CCCC" fill-opacity="0.5" x="0" y="84" width="1" height="432" class="svelte-cfqfco" transform="translate(42 0) scale(206.857 1)"></rect><text x="0" y="468" opacity="0.87" alignment-baseline="middle" font-weight="bold" text-anchor="middle" fill="#000" class="svelte-cfqfco" transform="translate(145.429 0)">Sub Bass</text><rect fill="#FFF2CC" fill-opacity="0.5" x="0" y="84" width="1" height="432" class="svelte-cfqfco" transform="translate(248.857 0) scale(223.347 1)"></rect><text x="0" y="468" opacity="0.87" alignment-baseline="middle" font-weight="bold" text-anchor="middle" fill="#000" class="svelte-cfqfco" transform="translate(360.531 0)">Bass</text><rect fill="#D9EAD3" fill-opacity="0.5" x="0" y="84" width="1" height="432" class="svelte-cfqfco" transform="translate(472.204 0) scale(137.013 1)"></rect><text x="0" y="468" opacity="0.87" alignment-baseline="middle" font-weight="bold" text-anchor="middle" fill="#000" class="svelte-cfqfco" transform="translate(540.71 0)">Low Mids</text><rect fill="#CFE2F3" fill-opacity="0.5" x="0" y="84" width="1" height="432" class="svelte-cfqfco" transform="translate(609.217 0) scale(188.424 1)"></rect><text x="0" y="468" opacity="0.87" alignment-baseline="middle" font-weight="bold" text-anchor="middle" fill="#000" class="svelte-cfqfco" transform="translate(703.429 0)">Midrange</text><rect fill="#D9D2E9" fill-opacity="0.5" x="0" y="84" width="1" height="432" class="svelte-cfqfco" transform="translate(797.641 0) scale(171.935 1)"></rect><text x="0" y="468" opacity="0.87" alignment-baseline="middle" font-weight="bold" text-anchor="middle" fill="#000" class="svelte-cfqfco" transform="translate(883.608 0)">High Mids</text><rect fill="#EAD1DC" fill-opacity="0.5" x="0" y="84" width="1" height="432" class="svelte-cfqfco" transform="translate(969.576 0) scale(188.424 1)"></rect><text x="0" y="468" opacity="0.87" alignment-baseline="middle" font-weight="bold" text-anchor="middle" fill="#000" class="svelte-cfqfco" transform="translate(1063.79 0)">High Frequencies</text><text x="0" y="48" alignment-baseline="middle" font-size="20" fill-opacity="0.87" font-weight="bold" opacity="1" dy="0" text-anchor="middle" fill="#000" class="svelte-cfqfco" transform="translate(42 0)">16</text><text x="0" y="558" alignment-baseline="middle" fill-opacity="0.87" font-weight="bold" font-size="20" opacity="1" text-anchor="middle" fill="#000" class="svelte-cfqfco" transform="translate(42 0)">16</text><line stroke-width="1" stroke="#000" stroke-opacity="0.66" x1="0" y1="60" x2="0" y2="540" class="svelte-cfqfco" transform="translate(42 0)"></line><text x="0" y="48" alignment-baseline="middle" font-size="20" fill-opacity="0.87" font-weight="bold" opacity="1" dy="0" text-anchor="middle" fill="#000" class="svelte-cfqfco" transform="translate(248.857 0)">60</text><text x="0" y="558" alignment-baseline="middle" fill-opacity="0.87" font-weight="bold" font-size="20" opacity="1" text-anchor="middle" fill="#000" class="svelte-cfqfco" transform="translate(248.857 0)">60</text><line stroke-width="1" stroke="#000" stroke-opacity="0.66" x1="0" y1="60" x2="0" y2="540" class="svelte-cfqfco" transform="translate(248.857 0)"></line><text x="0" y="48" alignment-baseline="middle" font-size="16" fill-opacity="1" font-weight="normal" opacity="1" dy="28" text-anchor="middle" fill="#000" class="svelte-cfqfco" transform="translate(328.803 0)">100</text><line stroke-width="1" stroke="#000" stroke-opacity="0.66" x1="0" y1="84" x2="0" y2="252" class="svelte-cfqfco" transform="translate(328.803 0)"></line><text x="0" y="48" alignment-baseline="middle" font-size="20" fill-opacity="0.87" font-weight="bold" opacity="1" dy="0" text-anchor="middle" fill="#000" class="svelte-cfqfco" transform="translate(472.204 0)">250</text><text x="0" y="558" alignment-baseline="middle" fill-opacity="0.87" font-weight="bold" font-size="20" opacity="1" text-anchor="middle" fill="#000" class="svelte-cfqfco" transform="translate(472.204 0)">250</text><line stroke-width="1" stroke="#000" stroke-opacity="0.66" x1="0" y1="60" x2="0" y2="540" class="svelte-cfqfco" transform="translate(472.204 0)"></line><text x="0" y="48" alignment-baseline="middle" font-size="16" fill-opacity="1" font-weight="normal" opacity="1" dy="28" text-anchor="middle" fill="#000" class="svelte-cfqfco" transform="translate(564.194 0)">450</text><line stroke-width="1" stroke="#000" stroke-opacity="0.66" x1="0" y1="84" x2="0" y2="252" class="svelte-cfqfco" transform="translate(564.194 0)"></line><text x="0" y="48" alignment-baseline="middle" font-size="20" fill-opacity="0.87" font-weight="bold" opacity="1" dy="0" text-anchor="middle" fill="#000" class="svelte-cfqfco" transform="translate(609.217 0)">600</text><text x="0" y="558" alignment-baseline="middle" fill-opacity="0.87" font-weight="bold" font-size="20" opacity="1" text-anchor="middle" fill="#000" class="svelte-cfqfco" transform="translate(609.217 0)">600</text><line stroke-width="1" stroke="#000" stroke-opacity="0.66" x1="0" y1="60" x2="0" y2="540" class="svelte-cfqfco" transform="translate(609.217 0)"></line><text x="0" y="48" alignment-baseline="middle" font-size="16" fill-opacity="1" font-weight="normal" opacity="1" dy="28" text-anchor="middle" fill="#000" class="svelte-cfqfco" transform="translate(689.162 0)">1k</text><line stroke-width="1" stroke="#000" stroke-opacity="0.66" x1="0" y1="84" x2="0" y2="252" class="svelte-cfqfco" transform="translate(689.162 0)"></line><text x="0" y="48" alignment-baseline="middle" font-size="20" fill-opacity="0.87" font-weight="bold" opacity="1" dy="0" text-anchor="middle" fill="#000" class="svelte-cfqfco" transform="translate(797.641 0)">2k</text><text x="0" y="558" alignment-baseline="middle" fill-opacity="0.87" font-weight="bold" font-size="20" opacity="1" text-anchor="middle" fill="#000" class="svelte-cfqfco" transform="translate(797.641 0)">2k</text><line stroke-width="1" stroke="#000" stroke-opacity="0.66" x1="0" y1="60" x2="0" y2="540" class="svelte-cfqfco" transform="translate(797.641 0)"></line><text x="0" y="48" alignment-baseline="middle" font-size="16" fill-opacity="1" font-weight="normal" opacity="1" dy="28" text-anchor="middle" fill="#000" class="svelte-cfqfco" transform="translate(906.12 0)">4k</text><line stroke-width="1" stroke="#000" stroke-opacity="0.66" x1="0" y1="84" x2="0" y2="252" class="svelte-cfqfco" transform="translate(906.12 0)"></line><text x="0" y="48" alignment-baseline="middle" font-size="20" fill-opacity="0.87" font-weight="bold" opacity="1" dy="0" text-anchor="middle" fill="#000" class="svelte-cfqfco" transform="translate(969.576 0)">6k</text><text x="0" y="558" alignment-baseline="middle" fill-opacity="0.87" font-weight="bold" font-size="20" opacity="1" text-anchor="middle" fill="#000" class="svelte-cfqfco" transform="translate(969.576 0)">6k</text><line stroke-width="1" stroke="#000" stroke-opacity="0.66" x1="0" y1="60" x2="0" y2="540" class="svelte-cfqfco" transform="translate(969.576 0)"></line><text x="0" y="48" alignment-baseline="middle" font-size="16" fill-opacity="1" font-weight="normal" opacity="1" dy="28" text-anchor="middle" fill="#000" class="svelte-cfqfco" transform="translate(1049.52 0)">10k</text><line stroke-width="1" stroke="#000" stroke-opacity="0.66" x1="0" y1="84" x2="0" y2="252" class="svelte-cfqfco" transform="translate(1049.52 0)"></line><text x="0" y="48" alignment-baseline="middle" font-size="16" fill-opacity="1" font-weight="normal" opacity="1" dy="28" text-anchor="middle" fill="#000" class="svelte-cfqfco" transform="translate(1112.98 0)">15k</text><line stroke-width="1" stroke="#000" stroke-opacity="0.66" x1="0" y1="84" x2="0" y2="168" class="svelte-cfqfco" transform="translate(1112.98 0)"></line><text x="0" y="48" alignment-baseline="middle" font-size="20" fill-opacity="0.87" font-weight="bold" opacity="1" dy="0" text-anchor="middle" fill="#000" class="svelte-cfqfco" transform="translate(1158 0)">20k</text><text x="0" y="558" alignment-baseline="middle" fill-opacity="0.87" font-weight="bold" font-size="20" opacity="1" text-anchor="middle" fill="#000" class="svelte-cfqfco" transform="translate(1158 0)">20k</text><line stroke-width="1" stroke="#000" stroke-opacity="0.66" x1="0" y1="60" x2="0" y2="540" class="svelte-cfqfco" transform="translate(1158 0)"></line><rect fill="#fff" fill-opacity="0.87" x="0" y="348" width="1" height="72" class="svelte-cfqfco" transform="translate(46 0) scale(422.204 1)"></rect><text x="0" y="384" alignment-baseline="middle" opacity="1" text-anchor="middle" fill="#000" class="svelte-cfqfco" transform="translate(257.102 0)">Boomy</text><rect fill="#fff" fill-opacity="0.87" x="0" y="348" width="1" height="72" class="svelte-cfqfco" transform="translate(476.204 0) scale(129.013 1)"></rect><text x="0" y="384" alignment-baseline="middle" opacity="1" text-anchor="middle" fill="#000" class="svelte-cfqfco" transform="translate(540.71 0)">Boxy</text><rect fill="#fff" fill-opacity="0.87" x="0" y="348" width="1" height="72" class="svelte-cfqfco" transform="translate(613.217 0) scale(180.424 1)"></rect><text x="0" y="384" alignment-baseline="middle" opacity="1" text-anchor="middle" fill="#000" class="svelte-cfqfco" transform="translate(703.429 0)">Nasal</text><rect fill="#fff" fill-opacity="0.87" x="0" y="348" width="1" height="72" class="svelte-cfqfco" transform="translate(801.641 0) scale(163.935 1)"></rect><text x="0" y="384" alignment-baseline="middle" opacity="1" text-anchor="middle" fill="#000" class="svelte-cfqfco" transform="translate(883.608 0)">Harsh / Shrill</text><rect fill="#fff" fill-opacity="0.87" x="0" y="348" width="1" height="72" class="svelte-cfqfco" transform="translate(973.576 0) scale(180.424 1)"></rect><text x="0" y="384" alignment-baseline="middle" opacity="1" text-anchor="middle" fill="#000" class="svelte-cfqfco" transform="translate(1063.79 0)">Piercing</text><line stroke="rgba(64,64,64, 0.5)" opacity="1" x1="0" y1="282" x2="0" y2="318" class="svelte-cfqfco" transform="translate(54.4418 0)"></line><line stroke="#000" opacity="1" x1="0" y1="282" x2="0" y2="318" class="svelte-cfqfco" transform="translate(63.4817 0)"></line><line stroke="#000" opacity="1" x1="0" y1="282" x2="0" y2="318" class="svelte-cfqfco" transform="translate(72.5216 0)"></line><line stroke="#000" opacity="1" x1="0" y1="282" x2="0" y2="318" class="svelte-cfqfco" transform="translate(81.5615 0)"></line><line stroke="#000" opacity="1" x1="0" y1="282" x2="0" y2="318" class="svelte-cfqfco" transform="translate(90.6014 0)"></line><line stroke="#000" opacity="1" x1="0" y1="282" x2="0" y2="318" class="svelte-cfqfco" transform="translate(99.6413 0)"></line><line stroke="#000" opacity="1" x1="0" y1="282" x2="0" y2="318" class="svelte-cfqfco" transform="translate(108.681 0)"></line><line stroke="#000" opacity="1" x1="0" y1="282" x2="0" y2="318" class="svelte-cfqfco" transform="translate(117.721 0)"></line><line stroke="#000" opacity="1" x1="0" y1="282" x2="0" y2="336" class="svelte-cfqfco" transform="translate(126.761 0)"></line><line stroke="#000" opacity="1" x1="0" y1="282" x2="0" y2="318" class="svelte-cfqfco" transform="translate(135.801 0)"></line><line stroke="#000" opacity="1" x1="0" y1="282" x2="0" y2="318" class="svelte-cfqfco" transform="translate(144.841 0)"></line><line stroke="#000" opacity="1" x1="0" y1="282" x2="0" y2="318" class="svelte-cfqfco" transform="translate(153.881 0)"></line><line stroke="rgba(64,64,64, 0.5)" opacity="1" x1="0" y1="282" x2="0" y2="318" class="svelte-cfqfco" transform="translate(162.921 0)"></line><line stroke="#000" opacity="1" x1="0" y1="282" x2="0" y2="318" class="svelte-cfqfco" transform="translate(171.961 0)"></line><line stroke="#000" opacity="1" x1="0" y1="282" x2="0" y2="318" class="svelte-cfqfco" transform="translate(181.001 0)"></line><line stroke="#000" opacity="1" x1="0" y1="282" x2="0" y2="318" class="svelte-cfqfco" transform="translate(190.04 0)"></line><line stroke="#000" opacity="1" x1="0" y1="282" x2="0" y2="318" class="svelte-cfqfco" transform="translate(199.08 0)"></line><line stroke="#000" opacity="1" x1="0" y1="282" x2="0" y2="318" class="svelte-cfqfco" transform="translate(208.12 0)"></line><line stroke="#000" opacity="1" x1="0" y1="282" x2="0" y2="318" class="svelte-cfqfco" transform="translate(217.16 0)"></line><line stroke="#000" opacity="1" x1="0" y1="282" x2="0" y2="318" class="svelte-cfqfco" transform="translate(226.2 0)"></line><line stroke="#000" opacity="1" x1="0" y1="282" x2="0" y2="336" class="svelte-cfqfco" transform="translate(235.24 0)"></line><line stroke="#000" opacity="1" x1="0" y1="282" x2="0" y2="318" class="svelte-cfqfco" transform="translate(244.28 0)"></line><line stroke="#000" opacity="1" x1="0" y1="282" x2="0" y2="318" class="svelte-cfqfco" transform="translate(253.32 0)"></line><line stroke="#000" opacity="1" x1="0" y1="282" x2="0" y2="318" class="svelte-cfqfco" transform="translate(262.36 0)"></line><line stroke="rgba(64,64,64, 0.5)" opacity="1" x1="0" y1="282" x2="0" y2="318" class="svelte-cfqfco" transform="translate(271.4 0)"></line><line stroke="#000" opacity="1" x1="0" y1="282" x2="0" y2="318" class="svelte-cfqfco" transform="translate(280.44 0)"></line><line stroke="#000" opacity="1" x1="0" y1="282" x2="0" y2="318" class="svelte-cfqfco" transform="translate(289.479 0)"></line><line stroke="#000" opacity="1" x1="0" y1="282" x2="0" y2="318" class="svelte-cfqfco" transform="translate(298.519 0)"></line><line stroke="#000" opacity="1" x1="0" y1="282" x2="0" y2="318" class="svelte-cfqfco" transform="translate(307.559 0)"></line><line stroke="#000" opacity="1" x1="0" y1="282" x2="0" y2="318" class="svelte-cfqfco" transform="translate(316.599 0)"></line><line stroke="#000" opacity="1" x1="0" y1="282" x2="0" y2="318" class="svelte-cfqfco" transform="translate(325.639 0)"></line><line stroke="#000" opacity="1" x1="0" y1="282" x2="0" y2="318" class="svelte-cfqfco" transform="translate(334.679 0)"></line><line stroke="#000" opacity="1" x1="0" y1="282" x2="0" y2="336" class="svelte-cfqfco" transform="translate(343.719 0)"></line><line stroke="#000" opacity="1" x1="0" y1="282" x2="0" y2="318" class="svelte-cfqfco" transform="translate(352.759 0)"></line><line stroke="#000" opacity="1" x1="0" y1="282" x2="0" y2="318" class="svelte-cfqfco" transform="translate(361.799 0)"></line><line stroke="#000" opacity="1" x1="0" y1="282" x2="0" y2="318" class="svelte-cfqfco" transform="translate(370.839 0)"></line><line stroke="rgba(64,64,64, 0.5)" opacity="1" x1="0" y1="282" x2="0" y2="318" class="svelte-cfqfco" transform="translate(379.879 0)"></line><line stroke="#000" opacity="1" x1="0" y1="282" x2="0" y2="318" class="svelte-cfqfco" transform="translate(388.918 0)"></line><line stroke="#000" opacity="1" x1="0" y1="282" x2="0" y2="318" class="svelte-cfqfco" transform="translate(397.958 0)"></line><line stroke="#000" opacity="1" x1="0" y1="282" x2="0" y2="318" class="svelte-cfqfco" transform="translate(406.998 0)"></line><line stroke="#000" opacity="1" x1="0" y1="282" x2="0" y2="318" class="svelte-cfqfco" transform="translate(416.038 0)"></line><line stroke="#000" opacity="1" x1="0" y1="282" x2="0" y2="318" class="svelte-cfqfco" transform="translate(425.078 0)"></line><line stroke="#000" opacity="1" x1="0" y1="282" x2="0" y2="318" class="svelte-cfqfco" transform="translate(434.118 0)"></line><line stroke="#000" opacity="1" x1="0" y1="282" x2="0" y2="318" class="svelte-cfqfco" transform="translate(443.158 0)"></line><line stroke="#000" opacity="1" x1="0" y1="282" x2="0" y2="336" class="svelte-cfqfco" transform="translate(452.198 0)"></line><line stroke="#000" opacity="1" x1="0" y1="282" x2="0" y2="318" class="svelte-cfqfco" transform="translate(461.238 0)"></line><line stroke="#000" opacity="1" x1="0" y1="282" x2="0" y2="318" class="svelte-cfqfco" transform="translate(470.278 0)"></line><line stroke="#000" opacity="1" x1="0" y1="282" x2="0" y2="318" class="svelte-cfqfco" transform="translate(479.318 0)"></line><line stroke="rgba(64,64,64, 0.5)" opacity="1" x1="0" y1="282" x2="0" y2="318" class="svelte-cfqfco" transform="translate(488.357 0)"></line><line stroke="#000" opacity="1" x1="0" y1="282" x2="0" y2="318" class="svelte-cfqfco" transform="translate(497.397 0)"></line><line stroke="#000" opacity="1" x1="0" y1="282" x2="0" y2="318" class="svelte-cfqfco" transform="translate(506.437 0)"></line><line stroke="#000" opacity="1" x1="0" y1="282" x2="0" y2="318" class="svelte-cfqfco" transform="translate(515.477 0)"></line><line stroke="#000" opacity="1" x1="0" y1="282" x2="0" y2="318" class="svelte-cfqfco" transform="translate(524.517 0)"></line><line stroke="#000" opacity="1" x1="0" y1="282" x2="0" y2="318" class="svelte-cfqfco" transform="translate(533.557 0)"></line><line stroke="#000" opacity="1" x1="0" y1="282" x2="0" y2="318" class="svelte-cfqfco" transform="translate(542.597 0)"></line><line stroke="#000" opacity="1" x1="0" y1="282" x2="0" y2="318" class="svelte-cfqfco" transform="translate(551.637 0)"></line><line stroke="#000" opacity="1" x1="0" y1="282" x2="0" y2="336" class="svelte-cfqfco" transform="translate(560.677 0)"></line><line stroke="#000" opacity="1" x1="0" y1="282" x2="0" y2="318" class="svelte-cfqfco" transform="translate(569.717 0)"></line><line stroke="#000" opacity="1" x1="0" y1="282" x2="0" y2="318" class="svelte-cfqfco" transform="translate(578.757 0)"></line><line stroke="#000" opacity="1" x1="0" y1="282" x2="0" y2="318" class="svelte-cfqfco" transform="translate(587.797 0)"></line><line stroke="rgba(64,64,64, 0.5)" opacity="1" x1="0" y1="282" x2="0" y2="318" class="svelte-cfqfco" transform="translate(596.836 0)"></line><line stroke="#000" opacity="1" x1="0" y1="282" x2="0" y2="318" class="svelte-cfqfco" transform="translate(605.876 0)"></line><line stroke="#000" opacity="1" x1="0" y1="282" x2="0" y2="318" class="svelte-cfqfco" transform="translate(614.916 0)"></line><line stroke="#000" opacity="1" x1="0" y1="282" x2="0" y2="318" class="svelte-cfqfco" transform="translate(623.956 0)"></line><line stroke="#000" opacity="1" x1="0" y1="282" x2="0" y2="318" class="svelte-cfqfco" transform="translate(632.996 0)"></line><line stroke="#000" opacity="1" x1="0" y1="282" x2="0" y2="318" class="svelte-cfqfco" transform="translate(642.036 0)"></line><line stroke="#000" opacity="1" x1="0" y1="282" x2="0" y2="318" class="svelte-cfqfco" transform="translate(651.076 0)"></line><line stroke="#000" opacity="1" x1="0" y1="282" x2="0" y2="318" class="svelte-cfqfco" transform="translate(660.116 0)"></line><line stroke="#000" opacity="1" x1="0" y1="282" x2="0" y2="336" class="svelte-cfqfco" transform="translate(669.156 0)"></line><line stroke="#000" opacity="1" x1="0" y1="282" x2="0" y2="318" class="svelte-cfqfco" transform="translate(678.196 0)"></line><line stroke="#000" opacity="1" x1="0" y1="282" x2="0" y2="318" class="svelte-cfqfco" transform="translate(687.236 0)"></line><line stroke="#000" opacity="1" x1="0" y1="282" x2="0" y2="318" class="svelte-cfqfco" transform="translate(696.275 0)"></line><line stroke="rgba(64,64,64, 0.5)" opacity="1" x1="0" y1="282" x2="0" y2="318" class="svelte-cfqfco" transform="translate(705.315 0)"></line><line stroke="#000" opacity="1" x1="0" y1="282" x2="0" y2="318" class="svelte-cfqfco" transform="translate(714.355 0)"></line><line stroke="#000" opacity="1" x1="0" y1="282" x2="0" y2="318" class="svelte-cfqfco" transform="translate(723.395 0)"></line><line stroke="#000" opacity="1" x1="0" y1="282" x2="0" y2="318" class="svelte-cfqfco" transform="translate(732.435 0)"></line><line stroke="#000" opacity="1" x1="0" y1="282" x2="0" y2="318" class="svelte-cfqfco" transform="translate(741.475 0)"></line><line stroke="#000" opacity="1" x1="0" y1="282" x2="0" y2="318" class="svelte-cfqfco" transform="translate(750.515 0)"></line><line stroke="#000" opacity="1" x1="0" y1="282" x2="0" y2="318" class="svelte-cfqfco" transform="translate(759.555 0)"></line><line stroke="#000" opacity="1" x1="0" y1="282" x2="0" y2="318" class="svelte-cfqfco" transform="translate(768.595 0)"></line><line stroke="#000" opacity="1" x1="0" y1="282" x2="0" y2="336" class="svelte-cfqfco" transform="translate(777.635 0)"></line><line stroke="#000" opacity="1" x1="0" y1="282" x2="0" y2="318" class="svelte-cfqfco" transform="translate(786.675 0)"></line><line stroke="#000" opacity="1" x1="0" y1="282" x2="0" y2="318" class="svelte-cfqfco" transform="translate(795.714 0)"></line><line stroke="#000" opacity="1" x1="0" y1="282" x2="0" y2="318" class="svelte-cfqfco" transform="translate(804.754 0)"></line><line stroke="rgba(64,64,64, 0.5)" opacity="1" x1="0" y1="282" x2="0" y2="318" class="svelte-cfqfco" transform="translate(813.794 0)"></line><line stroke="#000" opacity="1" x1="0" y1="282" x2="0" y2="318" class="svelte-cfqfco" transform="translate(822.834 0)"></line><line stroke="#000" opacity="1" x1="0" y1="282" x2="0" y2="318" class="svelte-cfqfco" transform="translate(831.874 0)"></line><line stroke="#000" opacity="1" x1="0" y1="282" x2="0" y2="318" class="svelte-cfqfco" transform="translate(840.914 0)"></line><line stroke="#000" opacity="1" x1="0" y1="282" x2="0" y2="318" class="svelte-cfqfco" transform="translate(849.954 0)"></line><line stroke="#000" opacity="1" x1="0" y1="282" x2="0" y2="318" class="svelte-cfqfco" transform="translate(858.994 0)"></line><line stroke="#000" opacity="1" x1="0" y1="282" x2="0" y2="318" class="svelte-cfqfco" transform="translate(868.034 0)"></line><line stroke="#000" opacity="1" x1="0" y1="282" x2="0" y2="318" class="svelte-cfqfco" transform="translate(877.074 0)"></line><line stroke="#000" opacity="1" x1="0" y1="282" x2="0" y2="336" class="svelte-cfqfco" transform="translate(886.114 0)"></line><line stroke="#000" opacity="1" x1="0" y1="282" x2="0" y2="318" class="svelte-cfqfco" transform="translate(895.153 0)"></line><line stroke="#000" opacity="1" x1="0" y1="282" x2="0" y2="318" class="svelte-cfqfco" transform="translate(904.193 0)"></line><line stroke="#000" opacity="1" x1="0" y1="282" x2="0" y2="318" class="svelte-cfqfco" transform="translate(913.233 0)"></line><line stroke="rgba(64,64,64, 0.5)" opacity="1" x1="0" y1="282" x2="0" y2="318" class="svelte-cfqfco" transform="translate(922.273 0)"></line><line stroke="#000" opacity="1" x1="0" y1="282" x2="0" y2="318" class="svelte-cfqfco" transform="translate(931.313 0)"></line><line stroke="#000" opacity="1" x1="0" y1="282" x2="0" y2="318" class="svelte-cfqfco" transform="translate(940.353 0)"></line><line stroke="#000" opacity="1" x1="0" y1="282" x2="0" y2="318" class="svelte-cfqfco" transform="translate(949.393 0)"></line><line stroke="#000" opacity="1" x1="0" y1="282" x2="0" y2="318" class="svelte-cfqfco" transform="translate(958.433 0)"></line><line stroke="#000" opacity="1" x1="0" y1="282" x2="0" y2="318" class="svelte-cfqfco" transform="translate(967.473 0)"></line><line stroke="#000" opacity="1" x1="0" y1="282" x2="0" y2="318" class="svelte-cfqfco" transform="translate(976.513 0)"></line><line stroke="#000" opacity="1" x1="0" y1="282" x2="0" y2="318" class="svelte-cfqfco" transform="translate(985.553 0)"></line><line stroke="#000" opacity="1" x1="0" y1="282" x2="0" y2="336" class="svelte-cfqfco" transform="translate(994.592 0)"></line><line stroke="#000" opacity="1" x1="0" y1="282" x2="0" y2="318" class="svelte-cfqfco" transform="translate(1003.63 0)"></line><line stroke="#000" opacity="1" x1="0" y1="282" x2="0" y2="318" class="svelte-cfqfco" transform="translate(1012.67 0)"></line><line stroke="#000" opacity="1" x1="0" y1="282" x2="0" y2="318" class="svelte-cfqfco" transform="translate(1021.71 0)"></line><line stroke="rgba(64,64,64, 0.5)" opacity="1" x1="0" y1="282" x2="0" y2="318" class="svelte-cfqfco" transform="translate(1030.75 0)"></line><line stroke="#000" opacity="1" x1="0" y1="282" x2="0" y2="318" class="svelte-cfqfco" transform="translate(1039.79 0)"></line><line stroke="#000" opacity="1" x1="0" y1="282" x2="0" y2="318" class="svelte-cfqfco" transform="translate(1048.83 0)"></line><line stroke="#000" opacity="1" x1="0" y1="282" x2="0" y2="318" class="svelte-cfqfco" transform="translate(1057.87 0)"></line><line stroke="#000" opacity="1" x1="0" y1="282" x2="0" y2="318" class="svelte-cfqfco" transform="translate(1066.91 0)"></line><line stroke="#000" opacity="1" x1="0" y1="282" x2="0" y2="318" class="svelte-cfqfco" transform="translate(1075.95 0)"></line><line stroke="#000" opacity="1" x1="0" y1="282" x2="0" y2="318" class="svelte-cfqfco" transform="translate(1084.99 0)"></line><line stroke="#000" opacity="1" x1="0" y1="282" x2="0" y2="318" class="svelte-cfqfco" transform="translate(1094.03 0)"></line><line stroke="#000" opacity="1" x1="0" y1="282" x2="0" y2="336" class="svelte-cfqfco" transform="translate(1103.07 0)"></line><line stroke="#000" opacity="1" x1="0" y1="282" x2="0" y2="318" class="svelte-cfqfco" transform="translate(1112.11 0)"></line><line stroke="#000" opacity="1" x1="0" y1="282" x2="0" y2="318" class="svelte-cfqfco" transform="translate(1121.15 0)"></line><line stroke="#000" opacity="1" x1="0" y1="282" x2="0" y2="318" class="svelte-cfqfco" transform="translate(1130.19 0)"></line><line stroke="rgba(64,64,64, 0.5)" opacity="1" x1="0" y1="282" x2="0" y2="318" class="svelte-cfqfco" transform="translate(1139.23 0)"></line><rect fill="#fff" fill-opacity="0.87" x="0" y="96" width="1" height="72" class="svelte-cfqfco" transform="translate(1116.98 0) scale(37.0228 1)"></rect><g class="svelte-cfqfco" transform="translate(1135.49 0)"><text x="0" y="132" alignment-baseline="middle" transform="rotate(-60 0,132)" opacity="1" font-size="17" text-anchor="middle" fill="#000" class="svelte-cfqfco">Sheen</text></g><rect fill="#fff" fill-opacity="0.87" x="0" y="180" width="1" height="72" class="svelte-cfqfco" transform="translate(1053.52 0) scale(100.479 1)"></rect><g class="svelte-cfqfco" transform="translate(1103.76 0)"><text x="0" y="216" alignment-baseline="middle" transform="rotate(0 0,216)" opacity="1" font-size="20" text-anchor="middle" fill="#000" class="svelte-cfqfco">Air</text></g><rect fill="#fff" fill-opacity="0.87" x="0" y="180" width="1" height="72" class="svelte-cfqfco" transform="translate(973.576 0) scale(71.9452 1)"></rect><g class="svelte-cfqfco" transform="translate(1009.55 0)"><text x="0" y="216" alignment-baseline="middle" transform="rotate(-60 0,216)" opacity="1" font-size="17" text-anchor="middle" fill="#000" class="svelte-cfqfco">Definition</text></g><rect fill="#fff" fill-opacity="0.87" x="0" y="180" width="1" height="72" class="svelte-cfqfco" transform="translate(910.12 0) scale(55.4561 1)"></rect><g class="svelte-cfqfco" transform="translate(937.848 0)"><text x="0" y="216" alignment-baseline="middle" transform="rotate(-60 0,216)" opacity="1" font-size="17" text-anchor="middle" fill="#000" class="svelte-cfqfco">Presence</text></g><rect fill="#fff" fill-opacity="0.87" x="0" y="180" width="1" height="72" class="svelte-cfqfco" transform="translate(801.641 0) scale(100.479 1)"></rect><g class="svelte-cfqfco" transform="translate(851.88 0)"><text x="0" y="216" alignment-baseline="middle" transform="rotate(0 0,216)" opacity="1" font-size="20" text-anchor="middle" fill="#000" class="svelte-cfqfco">Crunch</text></g><rect fill="#fff" fill-opacity="0.87" x="0" y="180" width="1" height="72" class="svelte-cfqfco" transform="translate(693.162 0) scale(100.479 1)"></rect><g class="svelte-cfqfco" transform="translate(743.401 0)"><text x="0" y="216" alignment-baseline="middle" transform="rotate(0 0,216)" opacity="1" font-size="20" text-anchor="middle" fill="#000" class="svelte-cfqfco">Tinny</text></g><rect fill="#fff" fill-opacity="0.87" x="0" y="180" width="1" height="72" class="svelte-cfqfco" transform="translate(568.194 0) scale(116.968 1)"></rect><g class="svelte-cfqfco" transform="translate(626.678 0)"><text x="0" y="216" alignment-baseline="middle" transform="rotate(0 0,216)" opacity="1" font-size="20" text-anchor="middle" fill="#000" class="svelte-cfqfco">Honk</text></g><rect fill="#fff" fill-opacity="0.87" x="0" y="180" width="1" height="72" class="svelte-cfqfco" transform="translate(476.204 0) scale(83.9898 1)"></rect><g class="svelte-cfqfco" transform="translate(518.199 0)"><text x="0" y="216" alignment-baseline="middle" transform="rotate(0 0,216)" opacity="1" font-size="20" text-anchor="middle" fill="#000" class="svelte-cfqfco">Mud</text></g><rect fill="#fff" fill-opacity="0.87" x="0" y="180" width="1" height="72" class="svelte-cfqfco" transform="translate(332.803 0) scale(135.401 1)"></rect><g class="svelte-cfqfco" transform="translate(400.503 0)"><text x="0" y="216" alignment-baseline="middle" transform="rotate(0 0,216)" opacity="1" font-size="20" text-anchor="middle" fill="#000" class="svelte-cfqfco">Warmth</text></g><rect fill="#fff" fill-opacity="0.87" x="0" y="180" width="1" height="72" class="svelte-cfqfco" transform="translate(252.857 0) scale(71.9452 1)"></rect><g class="svelte-cfqfco" transform="translate(288.83 0)"><text x="0" y="216" alignment-baseline="middle" transform="rotate(0 0,216)" opacity="1" font-size="20" text-anchor="middle" fill="#000" class="svelte-cfqfco">Bottom</text></g><rect fill="#fff" fill-opacity="0.87" x="0" y="180" width="1" height="72" class="svelte-cfqfco" transform="translate(46 0) scale(198.857 1)"></rect><g class="svelte-cfqfco" transform="translate(145.429 0)"><text x="0" y="216" alignment-baseline="middle" transform="rotate(0 0,216)" opacity="1" font-size="20" text-anchor="middle" fill="#000" class="svelte-cfqfco">Rumble</text></g><rect fill="#fff" fill-opacity="0.87" x="0" y="264" width="1" height="72" class="svelte-cfqfco" transform="translate(56.4418 0) scale(104.479 1)"></rect><text x="0" y="300" opacity="1" font-size="26" alignment-baseline="middle" text-anchor="middle" fill="#000" class="svelte-cfqfco" transform="translate(108.681 0)">0</text><text x="4" y="274" opacity="1" font-size="12" alignment-baseline="middle" text-anchor="start" fill="#000" class="svelte-cfqfco" transform="translate(54.4418 0)">17.32</text><rect fill="#fff" fill-opacity="0.87" x="0" y="264" width="1" height="72" class="svelte-cfqfco" transform="translate(164.921 0) scale(104.479 1)"></rect><text x="0" y="300" opacity="1" font-size="26" alignment-baseline="middle" text-anchor="middle" fill="#000" class="svelte-cfqfco" transform="translate(217.16 0)">1</text><text x="4" y="274" opacity="1" font-size="12" alignment-baseline="middle" text-anchor="start" fill="#000" class="svelte-cfqfco" transform="translate(162.921 0)">34.65</text><rect fill="#fff" fill-opacity="0.87" x="0" y="264" width="1" height="72" class="svelte-cfqfco" transform="translate(273.4 0) scale(104.479 1)"></rect><text x="0" y="300" opacity="1" font-size="26" alignment-baseline="middle" text-anchor="middle" fill="#000" class="svelte-cfqfco" transform="translate(325.639 0)">2</text><text x="4" y="274" opacity="1" font-size="12" alignment-baseline="middle" text-anchor="start" fill="#000" class="svelte-cfqfco" transform="translate(271.4 0)">69.3</text><rect fill="#fff" fill-opacity="0.87" x="0" y="264" width="1" height="72" class="svelte-cfqfco" transform="translate(381.879 0) scale(104.479 1)"></rect><text x="0" y="300" opacity="1" font-size="26" alignment-baseline="middle" text-anchor="middle" fill="#000" class="svelte-cfqfco" transform="translate(434.118 0)">3</text><text x="4" y="274" opacity="1" font-size="12" alignment-baseline="middle" text-anchor="start" fill="#000" class="svelte-cfqfco" transform="translate(379.879 0)">138.59</text><rect fill="#fff" fill-opacity="0.87" x="0" y="264" width="1" height="72" class="svelte-cfqfco" transform="translate(490.357 0) scale(104.479 1)"></rect><text x="0" y="300" opacity="1" font-size="26" alignment-baseline="middle" text-anchor="middle" fill="#000" class="svelte-cfqfco" transform="translate(542.597 0)">4</text><text x="4" y="274" opacity="1" font-size="12" alignment-baseline="middle" text-anchor="start" fill="#000" class="svelte-cfqfco" transform="translate(488.357 0)">277.18</text><rect fill="#fff" fill-opacity="0.87" x="0" y="264" width="1" height="72" class="svelte-cfqfco" transform="translate(598.836 0) scale(104.479 1)"></rect><text x="0" y="300" opacity="1" font-size="26" alignment-baseline="middle" text-anchor="middle" fill="#000" class="svelte-cfqfco" transform="translate(651.076 0)">5</text><text x="4" y="274" opacity="1" font-size="12" alignment-baseline="middle" text-anchor="start" fill="#000" class="svelte-cfqfco" transform="translate(596.836 0)">554.37</text><rect fill="#fff" fill-opacity="0.87" x="0" y="264" width="1" height="72" class="svelte-cfqfco" transform="translate(707.315 0) scale(104.479 1)"></rect><text x="0" y="300" opacity="1" font-size="26" alignment-baseline="middle" text-anchor="middle" fill="#000" class="svelte-cfqfco" transform="translate(759.555 0)">6</text><text x="4" y="274" opacity="1" font-size="12" alignment-baseline="middle" text-anchor="start" fill="#000" class="svelte-cfqfco" transform="translate(705.315 0)">1108.73</text><rect fill="#fff" fill-opacity="0.87" x="0" y="264" width="1" height="72" class="svelte-cfqfco" transform="translate(815.794 0) scale(104.479 1)"></rect><text x="0" y="300" opacity="1" font-size="26" alignment-baseline="middle" text-anchor="middle" fill="#000" class="svelte-cfqfco" transform="translate(868.034 0)">7</text><text x="4" y="274" opacity="1" font-size="12" alignment-baseline="middle" text-anchor="start" fill="#000" class="svelte-cfqfco" transform="translate(813.794 0)">2217.46</text><rect fill="#fff" fill-opacity="0.87" x="0" y="264" width="1" height="72" class="svelte-cfqfco" transform="translate(924.273 0) scale(104.479 1)"></rect><text x="0" y="300" opacity="1" font-size="26" alignment-baseline="middle" text-anchor="middle" fill="#000" class="svelte-cfqfco" transform="translate(976.513 0)">8</text><text x="4" y="274" opacity="1" font-size="12" alignment-baseline="middle" text-anchor="start" fill="#000" class="svelte-cfqfco" transform="translate(922.273 0)">4434.92</text><rect fill="#fff" fill-opacity="0.87" x="0" y="264" width="1" height="72" class="svelte-cfqfco" transform="translate(1032.75 0) scale(104.479 1)"></rect><text x="0" y="300" opacity="1" font-size="26" alignment-baseline="middle" text-anchor="middle" fill="#000" class="svelte-cfqfco" transform="translate(1084.99 0)">9</text><text x="4" y="274" opacity="1" font-size="12" alignment-baseline="middle" text-anchor="start" fill="#000" class="svelte-cfqfco" transform="translate(1030.75 0)">8869.84</text><text x="1" y="328" opacity="1" font-size="12" alignment-baseline="middle" text-anchor="start" fill="#000" class="svelte-cfqfco" transform="translate(126.761 0)">27.5</text><text x="1" y="328" opacity="1" font-size="12" alignment-baseline="middle" text-anchor="start" fill="#000" class="svelte-cfqfco" transform="translate(235.24 0)">55</text><text x="1" y="328" opacity="1" font-size="12" alignment-baseline="middle" text-anchor="start" fill="#000" class="svelte-cfqfco" transform="translate(343.719 0)">110</text><text x="1" y="328" opacity="1" font-size="12" alignment-baseline="middle" text-anchor="start" fill="#000" class="svelte-cfqfco" transform="translate(452.198 0)">220</text><text x="1" y="328" opacity="1" font-size="12" alignment-baseline="middle" text-anchor="start" fill="#000" class="svelte-cfqfco" transform="translate(560.677 0)">440</text><text x="1" y="328" opacity="1" font-size="12" alignment-baseline="middle" text-anchor="start" fill="#000" class="svelte-cfqfco" transform="translate(669.156 0)">880</text><text x="1" y="328" opacity="1" font-size="12" alignment-baseline="middle" text-anchor="start" fill="#000" class="svelte-cfqfco" transform="translate(777.635 0)">1760</text><text x="1" y="328" opacity="1" font-size="12" alignment-baseline="middle" text-anchor="start" fill="#000" class="svelte-cfqfco" transform="translate(886.114 0)">3520</text><text x="1" y="328" opacity="1" font-size="12" alignment-baseline="middle" text-anchor="start" fill="#000" class="svelte-cfqfco" transform="translate(994.592 0)">7040</text><text x="1" y="328" opacity="1" font-size="12" alignment-baseline="middle" text-anchor="start" fill="#000" class="svelte-cfqfco" transform="translate(1103.07 0)">14080</text><path d="M112.05266768976207,282.43710748764437C123.901311550009,293.4576906824361,135.95779450459986,304.2536272278613,148.21721328478102,314.5829971299408C160.47663206496216,324.91236703202026,172.9389866707336,334.77517029075403,184.99056635657087,343.77039110325546C197.04214604240806,352.765611915757,208.68295080831112,360.89325028202614,220.53159466855809,368.4373123206363C232.380238528805,375.98137435924644,244.43672148339587,382.9418600701976,256.696140263577,389.4261430499655C268.9555590437581,395.9104260297334,281.41791364952957,401.9185062783181,293.46949333536685,407.2439178935378C305.5210730212041,412.56932950875745,317.1618777871072,417.2120724906122,328.80268255301024,421.52074367439485C340.44348731891324,425.8294148581774,352.0842920848163,429.80401424388793,364.3437108649975,433.60664199085545C376.60312964517857,437.40926973782297,389.4811624396378,441.03992584604725,401.7405812198189,444.4123860756891C414,447.784846305331,425.64080476590306,450.89911065639035,437.28160953180605,453.7649442825522C448.9224142977091,456.63077790871404,460.56321906361217,459.24818080997846,472.411862923859,461.80650200338147C484.2605067841061,464.3648231967846,496.3169897386969,466.8640626823264,508.57640851887805,469.1704843038772C520.8358272990591,471.47690592542796,533.2981819048306,473.59050968298783,545.3497615906678,475.45803984868235C557.4013412765051,477.3255700143768,569.0421460424081,478.947026588206,580.890789902655,480.3643638444311C592.7394337629021,481.78170110065616,604.795916717493,482.99491903927714,617.0553354976742,483.91296108203437C629.3147542778553,484.8310031247916,641.7771088836267,485.45386927168516,653.8286885694639,485.6149314088812C665.8802682553011,485.77599354607725,677.5210730212041,485.4752516735759,689.1618777871072,484.7880917887064C700.8026825530102,484.10093190383697,712.4434873189133,483.0273540065995,724.7029060990944,483.63218383289694C736.9623248792756,484.23701365919425,749.840357673735,486.5202512090265,762.0997764539161,489.16629907055835C774.3591952340972,491.8123469320902,786.0000000000001,494.82120510532167,797.6408047659032,497.8348413488546C809.2816095318061,500.8484775923876,820.9224142977091,503.8668919062222,832.7710581579562,506.3943055202576C844.619702018203,508.921719134293,856.676184972794,510.95813204852954,868.9356037529751,511.7029294886344C881.1950225331561,512.4477269287394,893.6573771389276,511.90090889471276,905.7089568247649,509.5644414750013C917.7605365106023,507.22797405528985,929.4013412765053,503.1018572498936,941.2499851367521,497.04560704867026C953.0986289969991,490.9893568474469,965.1551119515899,483.0029732503965,977.4145307317709,475.6425210366367C989.6739495119522,468.28206882287697,1002.1363041177236,461.54754799240783,1014.1878838035609,457.84776311326897C1026.239463489398,454.1479782341302,1037.8802682553012,453.4829293063217,1049.521073021204,454.22749616270306" fill="none" stroke-width="5" stroke="#000" stroke-opacity="0.12" stroke-dasharray="1 9" stroke-linecap="round" stroke-linejoin="round"></path><path d="M112.05266768976207,229.97496215297875C123.901311550009,236.97009933885263,135.95779450459986,243.8357045129252,148.21721328478102,250.53900402441738C160.47663206496216,257.2423035359095,172.9389866707336,263.7832973848213,184.99056635657087,269.93344285296354C197.04214604240806,276.08358832110576,208.68295080831112,281.8428854084784,220.53159466855809,287.533509337382C232.380238528805,293.22413326628555,244.43672148339587,298.8460840367201,256.696140263577,304.4147776524214C268.9555590437581,309.9834712681226,281.41791364952957,315.49890772909066,293.46949333536685,320.7297724358576C305.5210730212041,325.96063714262465,317.1618777871072,330.90693009519055,328.80268255301024,335.6632424628933C340.44348731891324,340.4195548305961,352.0842920848163,344.98588661343575,364.3437108649975,349.61995908550676C376.60312964517857,354.2540315575778,389.4811624396378,358.9558447188802,401.7405812198189,363.2906699166681C414,367.625495114456,425.64080476590306,371.5933323487293,437.28160953180605,375.387720202567C448.9224142977091,379.1821080564048,460.56321906361217,382.80304652980686,472.411862923859,386.3135351612609C484.2605067841061,389.82402379271485,496.3169897386969,393.22406258222077,508.57640851887805,396.4753393065196C520.8358272990591,399.7266160308183,533.2981819048306,402.82913068990996,545.3497615906678,405.5344707577968C557.4013412765051,408.2398108256836,569.0421460424081,410.5479763023657,580.890789902655,412.7017034670105C592.7394337629021,414.8554306316552,604.795916717493,416.85471948426266,617.0553354976742,418.5647868023827C629.3147542778553,420.27485412050254,641.7771088836267,421.6956999041349,653.8286885694639,422.4554680259319C665.8802682553011,423.21523614772894,677.5210730212041,423.3139266076907,689.1618777871072,422.61415813991056C700.8026825530102,421.9143896721304,712.4434873189133,420.4161622766084,724.7029060990944,419.6981633646382C736.9623248792756,418.980164452668,749.840357673735,419.0423940242495,762.0997764539161,420.7447993501746C774.3591952340972,422.4472046760996,786.0000000000001,425.789785756368,797.6408047659032,428.88419793434446C809.2816095318061,431.9786101123209,820.9224142977091,434.82485338800524,832.7710581579562,436.8283295351019C844.619702018203,438.83180568219854,856.676184972794,439.99251470070743,868.9356037529751,440.1174404308033C881.1950225331561,440.2423661608991,893.6573771389276,439.331508602582,905.7089568247649,437.07946771786465C917.7605365106023,434.8274268331474,929.4013412765053,431.2342026220299,941.2499851367521,426.15403338598884C953.0986289969991,421.0738641499476,965.1551119515899,414.50674988898277,977.4145307317709,407.87869823108923C989.6739495119522,401.25064657319564,1002.1363041177236,394.56165751837347,1014.1878838035609,389.72428925089133C1026.239463489398,384.88692098340925,1037.8802682553012,381.9011735032672,1049.521073021204,381.11860100023154" fill="none" stroke-width="5" stroke="#000" stroke-opacity="0.12" stroke-dasharray="1 9" stroke-linecap="round" stroke-linejoin="round"></path><path d="M112.05266768976207,195.18987174203224C123.901311550009,201.20085387194513,135.95779450459986,207.14446303080732,148.21721328478102,212.96398406343837C160.47663206496216,218.78350509606938,172.9389866707336,224.47893800246925,184.99056635657087,229.8177542511552C197.04214604240806,235.1565704998412,208.68295080831112,240.1387700908132,220.53159466855809,245.04820877466827C232.380238528805,249.95764745852327,244.43672148339587,254.79432523526125,256.696140263577,259.5807742116579C268.9555590437581,264.36722318805454,281.41791364952957,269.10344336410975,293.46949333536685,273.5835898399423C305.5210730212041,278.063736315775,317.1618777871072,282.287809091385,328.80268255301024,286.346749210391C340.44348731891324,290.4056893293971,352.0842920848163,294.29949679179924,364.3437108649975,298.24350385387714C376.60312964517857,302.1875109159551,389.4811624396378,306.18171757770887,401.7405812198189,309.872624506739C414,313.5635314357692,425.64080476590306,316.9511386320758,437.28160953180605,320.1926842552493C448.9224142977091,323.4342298784227,460.56321906361217,326.52971392846297,472.411862923859,329.52864413622274C484.2605067841061,332.5275743439825,496.3169897386969,335.4299507094618,508.57640851887805,338.2187260935239C520.8358272990591,341.00750147758595,533.2981819048306,343.68267588023065,545.3497615906678,346.01074816924364C557.4013412765051,348.3388204582565,569.0421460424081,350.3197906336375,580.890789902655,352.19046768401887C592.7394337629021,354.06114473440016,604.795916717493,355.82152865978173,617.0553354976742,357.3586867668292C629.3147542778553,358.89584487387674,641.7771088836267,360.2097771625901,653.8286885694639,360.893339312897C665.8802682553011,361.5769014632038,677.5210730212041,361.63009347510416,689.1618777871072,360.726136429055C700.8026825530102,359.82217938300573,712.4434873189133,357.96107327900694,724.7029060990944,356.6766331904468C736.9623248792756,355.39219310188673,749.840357673735,354.6844190287654,762.0997764539161,356.01632439125956C774.3591952340972,357.34822975375374,786.0000000000001,360.7198145518635,797.6408047659032,363.80478770297265C809.2816095318061,366.88976085408177,820.9224142977091,369.6881223581902,832.7710581579562,371.55020691033866C844.619702018203,373.4122914624872,856.676184972794,374.3380990626758,868.9356037529751,374.2660130602707C881.1950225331561,374.19392705786566,893.6573771389276,373.12394745286684,905.7089568247649,370.8616961396703C917.7605365106023,368.5994448264737,929.4013412765053,365.14492180507915,941.2499851367521,360.4242396289437C953.0986289969991,355.7035574528083,965.1551119515899,349.7167161219318,977.4145307317709,343.65376799711265C989.6739495119522,337.59081987229337,1002.1363041177236,331.4517649535314,1014.1878838035609,327.10304264501093C1026.239463489398,322.7543203364906,1037.8802682553012,320.1959306382118,1049.521073021204,320.3558219326928" fill="none" stroke-width="5" stroke="#000" stroke-opacity="0.12" stroke-dasharray="1 9" stroke-linecap="round" stroke-linejoin="round"></path><path d="M112.05266768976207,163.456740735769C123.901311550009,168.82251708256356,135.95779450459986,174.11969036984752,148.21721328478102,179.28855968633994C160.47663206496216,184.45742900283233,172.9389866707336,189.49799434853313,184.99056635657087,194.18540569396762C197.04214604240806,198.87281703940218,208.68295080831112,203.20707438457035,220.53159466855809,207.4416501430244C232.380238528805,211.6762259014785,244.43672148339587,215.8111200732185,256.696140263577,219.87914917543938C268.9555590437581,223.94717827766024,281.41791364952957,227.948342310362,293.46949333536685,231.69686940402653C305.5210730212041,235.44539649769104,317.1618777871072,238.94128665231835,328.80268255301024,242.2789739798096C340.44348731891324,245.61666130730086,352.0842920848163,248.79614580765602,364.3437108649975,251.97457234695537C376.60312964517857,255.15299888625472,389.4811624396378,258.3303674644982,401.7405812198189,261.26135058820995C414,264.1923337119218,425.64080476590306,266.8769313811019,437.28160953180605,269.41725054487443C448.9224142977091,271.957569708647,460.56321906361217,274.353610367012,472.411862923859,276.65379408933137C484.2605067841061,278.95397781165076,496.3169897386969,281.15830459792454,508.57640851887805,283.2585646806515C520.8358272990591,285.35882476337844,533.2981819048306,287.35501814255866,545.3497615906678,289.0730207539613C557.4013412765051,290.79102336536397,569.0421460424081,292.23083520898916,580.890789902655,293.586511300885C592.7394337629021,294.94218739278085,604.795916717493,296.21372773294746,617.0553354976742,297.32689681976217C629.3147542778553,298.4400659065768,641.7771088836267,299.3948637400396,653.8286885694639,299.80802618298213C665.8802682553011,300.22118862592464,677.5210730212041,300.09271567834685,689.1618777871072,298.92619711112064C700.8026825530102,297.7596785438945,712.4434873189133,295.5551143570199,724.7029060990944,293.9208336503288C736.9623248792756,292.2865529436378,749.840357673735,291.22255571713026,762.0997764539161,292.35053845337745C774.3591952340972,293.4785211896247,786.0000000000001,296.79848388862666,797.6408047659032,299.8503611840708C809.2816095318061,302.90223847951495,820.9224142977091,305.6860303714013,832.7710581579562,307.5054476910986C844.619702018203,309.324865010796,856.676184972794,310.1799077583044,868.9356037529751,310.018016689889C881.1950225331561,309.85612562147367,893.6573771389276,308.67730073713454,905.7089568247649,306.38134732159284C917.7605365106023,304.08539390605125,929.4013412765053,300.67231195930714,941.2499851367521,296.1510656949674C953.0986289969991,291.6298194306276,965.1551119515899,286.0004088486922,977.4145307317709,280.4585927687779C989.6739495119522,274.91677668886354,1002.1363041177236,269.4625551109703,1014.1878838035609,265.9685733372098C1026.239463489398,262.47459156344934,1037.8802682553012,260.94084959382155,1049.521073021204,262.50077872565976" fill="none" stroke-width="5" stroke="#000" stroke-opacity="0.12" stroke-dasharray="1 9" stroke-linecap="round" stroke-linejoin="round"></path><path d="M112.05266768976207,132.56592227663808C123.901311550009,137.37157673547895,135.95779450459986,142.08959209462785,148.21721328478102,146.6646566641681C160.47663206496216,151.23972123370834,172.9389866707336,155.67183501363994,184.99056635657087,159.74719599665198C197.04214604240806,163.822556979664,208.68295080831112,167.5411651657565,220.53159466855809,171.12825560292504C232.380238528805,174.71534604009358,244.43672148339587,178.17091872833817,256.696140263577,181.5387051285272C268.9555590437581,184.9064915287162,281.41791364952957,188.18649164084968,293.46949333536685,191.21155244183123C305.5210730212041,194.2366132428128,317.1618777871072,197.00673473264246,328.80268255301024,199.6212261585297C340.44348731891324,202.235717584417,352.0842920848163,204.69457894636184,364.3437108649975,207.09297855136688C376.60312964517857,209.49137815637195,389.4811624396378,211.82931600443715,401.7405812198189,213.975231054138C414,216.12114610383887,425.64080476590306,218.07503835517534,437.28160953180605,219.8792180277312C448.9224142977091,221.6833977002871,460.56321906361217,223.3378647940624,472.411862923859,224.89264897264422C484.2605067841061,226.44743315122605,496.3169897386969,227.9025344146144,508.57640851887805,229.25481508026868C520.8358272990591,230.60709574592292,533.2981819048306,231.8565558138431,545.3497615906678,232.90051555742585C557.4013412765051,233.94447530100862,569.0421460424081,234.78293472025396,580.890789902655,235.55693098326051C592.7394337629021,236.33092724626712,604.795916717493,237.04046035303486,617.0553354976742,237.65468392847245C629.3147542778553,238.26890750391013,641.7771088836267,238.7878215480176,653.8286885694639,238.87089810398172C665.8802682553011,238.95397465994577,677.5210730212041,238.60121372776646,689.1618777871072,237.1538871806787C700.8026825530102,235.70656063359093,712.4434873189133,233.1646684715947,724.7029060990944,231.24702948866152C736.9623248792756,229.32939050572836,749.840357673735,228.03600470185822,762.0997764539161,229.01140550346784C774.3591952340972,229.9868063050775,786.0000000000001,233.23099371216685,797.6408047659032,236.24270714073876C809.2816095318061,239.25442056931067,820.9224142977091,242.03366001936504,832.7710581579562,243.83977907591566C844.619702018203,245.64589813246621,856.676184972794,246.478896795513,868.9356037529751,246.2589339487259C881.1950225331561,246.03897110193884,893.6573771389276,244.76604674531794,905.7089568247649,242.42948216857693C917.7605365106023,240.09291759183597,929.4013412765053,236.69271279497488,941.2499851367521,232.3231949361776C953.0986289969991,227.95367707738032,965.1551119515899,222.61484615664685,977.4145307317709,217.58100391966045C989.6739495119522,212.54716168267407,1002.1363041177236,207.81830812943477,1014.1878838035609,205.28422287868136C1026.239463489398,202.75013762792798,1037.8802682553012,202.41082067966045,1049.521073021204,205.49623958058172" fill="none" stroke-width="5" stroke="#000" stroke-opacity="0.12" stroke-dasharray="1 9" stroke-linecap="round" stroke-linejoin="round"></path><path d="M112.05266768976207,101.93102595308318C123.901311550009,106.20169426851425,135.95779450459986,110.36028156978729,148.21721328478102,114.35821460089208C160.47663206496216,118.35614763199688,172.9389866707336,122.19342639293342,184.99056635657087,125.66832122711746C197.04214604240806,129.1432160613015,208.68295080831112,132.25572696873303,220.53159466855809,135.20349635022342C232.380238528805,138.1512657317138,244.43672148339587,140.93429358726303,256.696140263577,143.6073995791113C268.9555590437581,146.2805055709596,281.41791364952957,148.84368969910693,293.46949333536685,151.14798129064198C305.5210730212041,153.45227288217703,317.1618777871072,155.4976719370998,328.80268255301024,157.38874029040804C340.44348731891324,159.27980864371634,352.0842920848163,161.0165462954101,364.3437108649975,162.63104453101977C376.60312964517857,164.24554276662943,389.4811624396378,165.73780158615497,401.7405812198189,167.09157896488878C414,168.44535634362262,425.64080476590306,169.66065228156472,437.28160953180605,170.7186071571128C448.9224142977091,171.7765620326609,460.56321906361217,172.67717584581501,472.411862923859,173.472840750436C484.2605067841061,174.26850565505697,496.3169897386969,174.95922165114484,508.57640851887805,175.54574632120762C520.8358272990591,176.1322709912704,533.2981819048306,176.61460433530806,545.3497615906678,176.9651446114234C557.4013412765051,177.31568488753877,569.0421460424081,177.53443209573186,580.890789902655,177.70627475706C592.7394337629021,177.87811741838814,604.795916717493,178.00305553285133,617.0553354976742,178.09504972449335C629.3147542778553,178.18704391613528,641.7771088836267,178.24609418495598,653.8286885694639,177.98037714601563C665.8802682553011,177.71466010707528,677.5210730212041,177.1241757603738,689.1618777871072,175.3902922130084C700.8026825530102,173.656408665643,712.4434873189133,170.7791259176137,724.7029060990944,168.59895780807503C736.9623248792756,166.41878969853633,749.840357673735,164.93573622748826,762.0997764539161,165.77466061754748C774.3591952340972,166.6135850076067,786.0000000000001,169.77448725877323,797.6408047659032,172.74384101368233C809.2816095318061,175.71319476859148,820.9224142977091,178.49100002724313,832.7710581579562,180.29293292871705C844.619702018203,182.0948658301909,856.676184972794,182.92092637448695,868.9356037529751,182.6527223690492C881.1950225331561,182.38451836361142,893.6573771389276,181.02204980843985,905.7089568247649,178.6427380181617C917.7605365106023,176.26342622788354,929.4013412765053,172.86727120249884,941.2499851367521,168.6346703857158C953.0986289969991,164.40206956893272,965.1551119515899,159.33302296075126,977.4145307317709,154.80306438551608C989.6739495119522,150.27310581028087,1002.1363041177236,146.28223526799187,1014.1878838035609,144.7403320333028C1026.239463489398,143.19842879861375,1037.8802682553012,144.1054928715246,1049.521073021204,148.75438870576332" fill="none" stroke-width="5" stroke="#000" stroke-opacity="0.12" stroke-dasharray="1 9" stroke-linecap="round" stroke-linejoin="round"></path><line x1="1158" y1="485.14285714285717" x2="1153" y2="485.14285714285717" stroke="#000" stroke-width="1" class="svelte-cfqfco"></line><text x="1162" y="485.14285714285717" alignment-baseline="central" font-size="16" class="svelte-cfqfco">0</text><line x1="1158" y1="423.42857142857144" x2="1153" y2="423.42857142857144" stroke="#000" stroke-width="1" class="svelte-cfqfco"></line><text x="1162" y="423.42857142857144" alignment-baseline="central" font-size="16" class="svelte-cfqfco">20</text><line x1="1158" y1="361.71428571428567" x2="1153" y2="361.71428571428567" stroke="#000" stroke-width="1" class="svelte-cfqfco"></line><text x="1162" y="361.71428571428567" alignment-baseline="central" font-size="16" class="svelte-cfqfco">40</text><line x1="1158" y1="300" x2="1153" y2="300" stroke="#000" stroke-width="1" class="svelte-cfqfco"></line><text x="1162" y="300" alignment-baseline="central" font-size="16" class="svelte-cfqfco">60</text><line x1="1158" y1="238.28571428571425" x2="1153" y2="238.28571428571425" stroke="#000" stroke-width="1" class="svelte-cfqfco"></line><text x="1162" y="238.28571428571425" alignment-baseline="central" font-size="16" class="svelte-cfqfco">80</text><line x1="1158" y1="176.57142857142858" x2="1153" y2="176.57142857142858" stroke="#000" stroke-width="1" class="svelte-cfqfco"></line><text x="1162" y="176.57142857142858" alignment-baseline="central" font-size="16" class="svelte-cfqfco">100</text><line x1="1158" y1="114.85714285714283" x2="1153" y2="114.85714285714283" stroke="#000" stroke-width="1" class="svelte-cfqfco"></line><text x="1162" y="114.85714285714283" alignment-baseline="central" font-size="16" class="svelte-cfqfco">120</text><line x1="0" y1="84" x2="0" y2="89" opacity="0.87" stroke="#000" stroke-width="1" class="svelte-cfqfco" transform="translate(76.9224 0)"></line><line x1="0" y1="84" x2="0" y2="89" opacity="0.87" stroke="#000" stroke-width="1" class="svelte-cfqfco" transform="translate(140.379 0)"></line><line x1="0" y1="84" x2="0" y2="89" opacity="0.87" stroke="#000" stroke-width="1" class="svelte-cfqfco" transform="translate(185.401 0)"></line><line x1="0" y1="84" x2="0" y2="89" opacity="0.87" stroke="#000" stroke-width="1" class="svelte-cfqfco" transform="translate(220.324 0)"></line><line x1="0" y1="84" x2="0" y2="89" opacity="0.87" stroke="#000" stroke-width="1" class="svelte-cfqfco" transform="translate(272.982 0)"></line><line x1="0" y1="84" x2="0" y2="89" opacity="0.87" stroke="#000" stroke-width="1" class="svelte-cfqfco" transform="translate(293.88 0)"></line><line x1="0" y1="84" x2="0" y2="89" opacity="0.87" stroke="#000" stroke-width="1" class="svelte-cfqfco" transform="translate(312.314 0)"></line><line x1="0" y1="84" x2="0" y2="89" opacity="0.87" stroke="#000" stroke-width="1" class="svelte-cfqfco" transform="translate(437.282 0)"></line><line x1="0" y1="84" x2="0" y2="89" opacity="0.87" stroke="#000" stroke-width="1" class="svelte-cfqfco" transform="translate(500.738 0)"></line><line x1="0" y1="84" x2="0" y2="89" opacity="0.87" stroke="#000" stroke-width="1" class="svelte-cfqfco" transform="translate(545.761 0)"></line><line x1="0" y1="84" x2="0" y2="89" opacity="0.87" stroke="#000" stroke-width="1" class="svelte-cfqfco" transform="translate(580.683 0)"></line><line x1="0" y1="84" x2="0" y2="89" opacity="0.87" stroke="#000" stroke-width="1" class="svelte-cfqfco" transform="translate(633.342 0)"></line><line x1="0" y1="84" x2="0" y2="89" opacity="0.87" stroke="#000" stroke-width="1" class="svelte-cfqfco" transform="translate(654.239 0)"></line><line x1="0" y1="84" x2="0" y2="89" opacity="0.87" stroke="#000" stroke-width="1" class="svelte-cfqfco" transform="translate(672.673 0)"></line><line x1="0" y1="84" x2="0" y2="89" opacity="0.87" stroke="#000" stroke-width="1" class="svelte-cfqfco" transform="translate(861.097 0)"></line><line x1="0" y1="84" x2="0" y2="89" opacity="0.87" stroke="#000" stroke-width="1" class="svelte-cfqfco" transform="translate(941.042 0)"></line><line x1="0" y1="84" x2="0" y2="89" opacity="0.87" stroke="#000" stroke-width="1" class="svelte-cfqfco" transform="translate(993.701 0)"></line><line x1="0" y1="84" x2="0" y2="89" opacity="0.87" stroke="#000" stroke-width="1" class="svelte-cfqfco" transform="translate(1014.6 0)"></line><line x1="0" y1="84" x2="0" y2="89" opacity="0.87" stroke="#000" stroke-width="1" class="svelte-cfqfco" transform="translate(1033.03 0)"></line><text x="18" y="300" text-anchor="middle" dy="8" transform="rotate(-90 18,300)" font-size="16" class="svelte-cfqfco">octave
</text><text x="30" y="252" text-anchor="middle" alignment-baseline="before-edge" font-size="14" class="svelte-cfqfco">C
</text><text x="30" y="348" text-anchor="middle" alignment-baseline="after-edge" font-size="14" class="svelte-cfqfco">A</text></svg>
